<svg viewBox="0 0 16 16" fill="none" xmlns="http://www.w3.org/2000/svg" id="Headphones-Round-Sound--Streamline-Solar" height="16" width="16"><desc>Headphones Round Sound Streamline Icon: https://streamlinehq.com</desc><path d="M1.3333333333333333 8.082666666666666C1.3333333333333333 4.355126666666666 4.318086666666666 1.3333333333333333 7.999933333333333 1.3333333333333333c3.6819333333333333 0 6.666666666666666 3.021793333333333 6.666666666666666 6.749333333333333l0 3.4956666666666667c0.00019999999999999998 0.5446 0.0003333333333333333 0.9180666666666666 -0.0954 1.2459333333333333 -0.18719999999999998 0.6412 -0.6348 1.1715333333333333 -1.2311999999999999 1.4587333333333332 -0.305 0.14693333333333333 -0.6694 0.205 -1.2007999999999999 0.2897333333333333l-0.08659999999999998 0.013866666666666666c-0.18899999999999997 0.030199999999999998 -0.3504666666666666 0.056 -0.48446666666666666 0.06933333333333333 -0.1394 0.013866666666666666 -0.2815333333333333 0.01813333333333333 -0.4269333333333333 -0.010866666666666665 -0.4784 -0.0954 -0.8729333333333332 -0.43666666666666665 -1.0406666666666666 -0.9002666666666667 -0.05093333333333333 -0.14086666666666664 -0.06893333333333333 -0.2837333333333333 -0.07719999999999999 -0.4252666666666667 -0.007866666666666666 -0.13599999999999998 -0.007866666666666666 -0.3015333333333333 -0.007866666666666666 -0.4952l-0.00006666666666666667 -2.7815999999999996c-0.0003333333333333333 -0.2836666666666666 -0.0006 -0.5277333333333333 0.06426666666666667 -0.7367333333333332 0.14846666666666666 -0.4782666666666667 0.5362 -0.841 1.0188 -0.9531999999999999 0.21093333333333333 -0.04906666666666666 0.4512666666666666 -0.02953333333333333 0.7305333333333334 -0.006866666666666667l0.06213333333333333 0.004999999999999999 0.07319999999999999 0.005866666666666667c0.5224666666666666 0.04153333333333333 0.8799333333333333 0.06999999999999999 1.1833999999999998 0.18359999999999999 0.21326666666666666 0.07986666666666667 0.41100000000000003 0.1898 0.5886666666666667 0.32466666666666666V8.082666666666666c0 -3.2074133333333332 -2.5683333333333334 -5.80756 -5.736466666666666 -5.80756 -3.168093333333333 0 -5.736373333333333 2.6001466666666664 -5.736373333333333 5.80756v0.7824c0.17761333333333332 -0.13486666666666666 0.3753933333333333 -0.24480000000000002 0.5886333333333333 -0.32466666666666666 0.30344 -0.11359999999999999 0.6609066666666666 -0.14206666666666667 1.1833733333333334 -0.18359999999999999l0.07322 -0.005866666666666667 0.062153333333333324 -0.004999999999999999c0.2792866666666667 -0.02266666666666667 0.5196 -0.042199999999999994 0.7305533333333334 0.006866666666666667 0.4825866666666666 0.1122 0.8702799999999999 0.4749333333333333 1.0187666666666666 0.9531999999999999 0.0649 0.209 0.06460666666666666 0.4530666666666666 0.06426 0.7367333333333332l-0.00004666666666666666 2.7815999999999996c0 0.19366666666666665 0.00000666666666666667 0.35919999999999996 -0.007893333333333332 0.4952 -0.00822 0.14153333333333332 -0.026246666666666668 0.2844 -0.07720666666666666 0.4252666666666667 -0.16768 0.4636 -0.5622133333333332 0.8048666666666666 -1.0406266666666666 0.9002666666666667 -0.14540666666666666 0.028999999999999998 -0.28757999999999995 0.024733333333333333 -0.42696 0.010866666666666665 -0.13398 -0.013333333333333332 -0.29545999999999994 -0.03913333333333333 -0.48444 -0.06933333333333333l-0.08664 -0.013866666666666666c-0.53138 -0.08473333333333333 -0.8957933333333333 -0.14279999999999998 -1.2007666666666665 -0.2897333333333333 -0.5963799999999999 -0.2872 -1.04402 -0.8175333333333332 -1.23122 -1.4587333333333332 -0.07894 -0.2703333333333333 -0.09269333333333332 -0.5717333333333333 -0.09498666666666666 -0.9744666666666666L1.3333333333333333 11.7202V8.082666666666666Z" fill="#fff" stroke-width="0.6667"></path><path fill-rule="evenodd" clip-rule="evenodd" d="M7.999933333333333 3.833333333333333c0.2762 0 0.5 0.22385999999999998 0.5 0.5l0 3.333333333333333c0 0.27613333333333334 -0.2238 0.5 -0.5 0.5 -0.27613333333333334 0 -0.5 -0.22386666666666666 -0.5 -0.5l0 -3.333333333333333c0 -0.27614 0.22386666666666666 -0.5 0.5 -0.5Z" fill="#fff" stroke-width="0.6667"></path><path fill-rule="evenodd" clip-rule="evenodd" d="M9.999933333333333 4.833333333333333c0.2762 0 0.5 0.22385999999999998 0.5 0.5v1.3333333333333333c0 0.27613333333333334 -0.2238 0.5 -0.5 0.5 -0.27613333333333334 0 -0.5 -0.22386666666666666 -0.5 -0.5V5.333333333333333c0 -0.27614 0.22386666666666666 -0.5 0.5 -0.5Z" fill="#fff" stroke-width="0.6667"></path><path fill-rule="evenodd" clip-rule="evenodd" d="M5.9999666666666664 4.833333333333333c0.27614 0 0.5 0.22385999999999998 0.5 0.5l0 1.3333333333333333c0 0.27613333333333334 -0.22385999999999998 0.5 -0.5 0.5 -0.27614666666666665 0 -0.5 -0.22386666666666666 -0.5 -0.5l0 -1.3333333333333333c0 -0.27614 0.22385333333333335 -0.5 0.5 -0.5Z" fill="#fff" stroke-width="0.6667"></path></svg>