<svg viewBox="0 0 16 16" fill="none" xmlns="http://www.w3.org/2000/svg" id="Augmented-Reality--Streamline-Solar" height="16" width="16"><desc>Augmented Reality Streamline Icon: https://streamlinehq.com</desc><path fill-rule="evenodd" clip-rule="evenodd" d="M1.3333333333333333 8c0 -3.1427 0 -4.7140466666666665 0.9763133333333333 -5.6903533333333325C3.2859533333333335 1.3333333333333333 4.8572999999999995 1.3333333333333333 8 1.3333333333333333c3.142666666666667 0 4.714066666666667 0 5.690333333333333 0.9763133333333333C14.666666666666666 3.2859533333333335 14.666666666666666 4.8572999999999995 14.666666666666666 8c0 3.142666666666667 0 4.714066666666667 -0.9763333333333333 5.690333333333333C12.714066666666668 14.666666666666666 11.142666666666665 14.666666666666666 8 14.666666666666666c-3.1427 0 -4.7140466666666665 0 -5.6903533333333325 -0.9763333333333333C1.3333333333333333 12.714066666666668 1.3333333333333333 11.142666666666665 1.3333333333333333 8Zm4.810573333333333 -2.815806666666666C6.078673333333333 4.97546 5.8853599999999995 4.833333333333333 5.666666666666666 4.833333333333333c-0.21869333333333332 0 -0.41200666666666663 0.14212666666666665 -0.47724 0.35086l-1.6666666666666665 5.33334c-0.08236666666666666 0.26359999999999995 0.06453333333333333 0.5439999999999999 0.32809999999999995 0.6264 0.2635733333333333 0.08233333333333333 0.5440133333333332 -0.06453333333333333 0.6263799999999999 -0.32813333333333333l0.47368666666666664 -1.5157999999999998h1.4314799999999999l0.47365999999999997 1.5157999999999998c0.0824 0.26359999999999995 0.3628 0.41046666666666665 0.6264 0.32813333333333333 0.26359999999999995 -0.0824 0.41046666666666665 -0.3628 0.32813333333333333 -0.6264L6.143906666666666 5.184193333333333ZM5.263426666666666 8.299999999999999h0.8064799999999999L5.666666666666666 7.009666666666666 5.263426666666666 8.299999999999999ZM8.833333333333332 5.333333333333333c0 -0.27614 0.22386666666666666 -0.5 0.5 -0.5h1.3333333333333333c1.0125333333333333 0 1.8333333333333333 0.8208133333333333 1.8333333333333333 1.8333333333333333 0 0.8312666666666666 -0.5532666666666666 1.5333333333333332 -1.3115999999999999 1.758l1.2355999999999998 1.9769999999999999c0.14633333333333332 0.2342 0.07519999999999999 0.5426666666666666 -0.15899999999999997 0.6890000000000001 -0.2342 0.14633333333333332 -0.5426666666666666 0.07519999999999999 -0.6890000000000001 -0.15899999999999997L10.0562 8.5H9.833333333333332V10.666666666666666c0 0.27613333333333334 -0.22386666666666666 0.5 -0.5 0.5s-0.5 -0.22386666666666666 -0.5 -0.5V5.333333333333333Zm1 2.1666666666666665v-1.6666666666666665H10.666666666666666c0.46026666666666666 0 0.8333333333333333 0.37309333333333333 0.8333333333333333 0.8333333333333333 0 0.46026666666666666 -0.37306666666666666 0.8333333333333333 -0.8333333333333333 0.8333333333333333h-0.8333333333333333Z" fill="#fff" stroke-width="0.6667"></path></svg>