<svg viewBox="0 0 16 16" fill="none" xmlns="http://www.w3.org/2000/svg" id="Camera-Minimalistic--Streamline-Solar" height="16" width="16"><desc>Camera Minimalistic Streamline Icon: https://streamlinehq.com</desc><path fill-rule="evenodd" clip-rule="evenodd" d="M5.333333333333333 2.6666666666666665c0 -0.36818666666666666 0.27552 -0.6666666666666666 0.6153866666666666 -0.6666666666666666h4.102546666666666C10.391133333333332 2 10.666666666666666 2.2984799999999996 10.666666666666666 2.6666666666666665s-0.2755333333333333 0.6666666666666666 -0.6154 0.6666666666666666H5.94872C5.608853333333333 3.333333333333333 5.333333333333333 3.034853333333333 5.333333333333333 2.6666666666666665Z" fill="#fff" stroke-width="0.6667"></path><path fill-rule="evenodd" clip-rule="evenodd" d="M6.51852 14h2.9629466666666664c2.0807333333333333 0 3.1210666666666667 0 3.8684 -0.48153333333333337 0.3234666666666667 -0.20846666666666663 0.6012666666666666 -0.47633333333333333 0.8174666666666666 -0.7882666666666666 0.4993333333333333 -0.7206666666666666 0.4993333333333333 -1.7238666666666664 0.4993333333333333 -3.730266666666666s-0.00013333333333333334 -3.0094666666666665 -0.4994666666666666 -3.7301133333333336c-0.21613333333333332 -0.31198 -0.49393333333333334 -0.5798399999999999 -0.8174666666666666 -0.7883C12.6024 4 11.562066666666666 4 9.481399999999999 4H6.518406666666666c-2.08068 0 -3.1210266666666664 0 -3.8683533333333333 0.48152 -0.32352666666666663 0.20846 -0.6013066666666667 0.47631999999999997 -0.81748 0.7883C1.3333333333333333 5.990313333333333 1.3333333333333333 6.993066666666666 1.3333333333333333 8.9986l0 0.0013333333333333333c0 2.0063999999999997 0 3.0096 0.49934666666666666 3.730266666666666 0.21617333333333333 0.3119333333333333 0.4939533333333333 0.5798 0.81748 0.7882666666666666C3.3974933333333333 14 4.437833333333333 14 6.51852 14Zm-1.2963 -5.000066666666666c0 -1.4794 1.2436533333333333 -2.6786266666666667 2.77778 -2.6786266666666667 1.5341333333333333 0 2.7777999999999996 1.1992266666666667 2.7777999999999996 2.6786266666666667 0 1.4793333333333332 -1.2436666666666665 2.6786 -2.7777999999999996 2.6786 -1.5341266666666666 0 -2.77778 -1.1992666666666665 -2.77778 -2.6786Zm1.1111133333333334 0c0 -0.8876 0.7462 -1.6072 1.6666666666666665 -1.6072s1.6666666666666665 0.7195999999999999 1.6666666666666665 1.6072c0 0.8876 -0.7462 1.607133333333333 -1.6666666666666665 1.607133333333333s-1.6666666666666665 -0.7195333333333332 -1.6666666666666665 -1.607133333333333Zm5.740733333333333 -2.6786266666666667c-0.30679999999999996 0 -0.5555333333333333 0.2398533333333333 -0.5555333333333333 0.5356933333333334 0 0.2959333333333333 0.2487333333333333 0.5357333333333333 0.5555333333333333 0.5357333333333333h0.37039999999999995c0.30679999999999996 0 0.5555333333333333 -0.2398 0.5555333333333333 -0.5357333333333333 0 -0.29584 -0.2487333333333333 -0.5356933333333334 -0.5555333333333333 -0.5356933333333334h-0.37039999999999995Z" fill="#fff" stroke-width="0.6667"></path></svg>