<svg viewBox="0 0 16 16" fill="none" xmlns="http://www.w3.org/2000/svg" id="Clapperboard-Play--Streamline-Solar" height="16" width="16"><desc>Clapperboard Play Streamline Icon: https://streamlinehq.com</desc><path d="M8 1.3333333333333333c1.2301333333333333 0 2.219533333333333 0 3.026733333333333 0.05855333333333333l-2.2943333333333333 3.4414599999999997H5.600926666666666L7.934266666666667 1.3333333333333333H8Z" fill="#fff" stroke-width="0.6667"></path><path d="M2.3096466666666666 2.3096466666666666C3.144553333333333 1.4747333333333332 4.414626666666667 1.3538133333333333 6.730466666666667 1.3362999999999998L4.399073333333333 4.8333466666666665H1.4027866666666666c0.09816666666666665 -1.1760599999999999 0.33507999999999993 -1.9519266666666666 0.90686 -2.5237Z" fill="#fff" stroke-width="0.6667"></path><path fill-rule="evenodd" clip-rule="evenodd" d="M1.3333333333333333 8c0 -0.8244666666666666 0 -1.540833333333333 0.017626666666666665 -2.166653333333333H14.649066666666666C14.666666666666666 6.4591666666666665 14.666666666666666 7.175533333333332 14.666666666666666 8c0 3.142666666666667 0 4.714066666666667 -0.9763333333333333 5.690333333333333C12.714066666666668 14.666666666666666 11.142666666666665 14.666666666666666 8 14.666666666666666c-3.1427 0 -4.7140466666666665 0 -5.6903533333333325 -0.9763333333333333C1.3333333333333333 12.714066666666668 1.3333333333333333 11.142666666666665 1.3333333333333333 8Zm7.342666666666666 0.39013333333333333C9.558666666666666 8.959666666666667 10 9.244399999999999 10 9.666666666666666s-0.44133333333333336 0.707 -1.3239999999999998 1.2765333333333333c-0.8947333333333334 0.5772666666666666 -1.3421333333333332 0.8659333333333332 -1.675733333333333 0.6539999999999999C6.666666666666666 11.385266666666666 6.666666666666666 10.812399999999998 6.666666666666666 9.666666666666666s0 -1.7186 0.33359999999999995 -1.9305333333333332c0.33359999999999995 -0.21193333333333333 0.7809999999999999 0.07673333333333332 1.675733333333333 0.6539999999999999Z" fill="#fff" stroke-width="0.6667"></path><path d="M14.5972 4.8333466666666665c-0.09813333333333332 -1.1760599999999999 -0.3350666666666667 -1.9519266666666666 -0.9068666666666667 -2.5237 -0.3982 -0.39822 -0.8954 -0.6340133333333333 -1.5578666666666667 -0.7736266666666666l-2.1982 3.2973266666666667h4.662933333333333Z" fill="#fff" stroke-width="0.6667"></path></svg>